<svg xmlns="http://www.w3.org/2000/svg" width="1280" height="640" viewBox="0 0 1280 640" role="img" aria-label="Phone Digital Twin hero image">
  <defs>
    <linearGradient id="bg" x1="0" x2="1" y1="0" y2="1">
      <stop offset="0" stop-color="#071018"/>
      <stop offset="0.56" stop-color="#101b24"/>
      <stop offset="1" stop-color="#17231d"/>
    </linearGradient>
    <linearGradient id="phoneBack" x1="0" x2="1" y1="0" y2="1">
      <stop offset="0" stop-color="#e7fff6"/>
      <stop offset="0.55" stop-color="#b7ddd4"/>
      <stop offset="1" stop-color="#7fa79f"/>
    </linearGradient>
    <linearGradient id="screen" x1="0" x2="1" y1="0" y2="1">
      <stop offset="0" stop-color="#0c4160"/>
      <stop offset="0.5" stop-color="#081b31"/>
      <stop offset="1" stop-color="#090c14"/>
    </linearGradient>
    <filter id="shadow" x="-30%" y="-30%" width="160%" height="160%">
      <feDropShadow dx="0" dy="28" stdDeviation="26" flood-color="#000" flood-opacity="0.38"/>
    </filter>
  </defs>
  <rect width="1280" height="640" fill="url(#bg)"/>
  <path d="M0 500 C220 430 360 540 560 480 C820 400 950 470 1280 380 L1280 640 L0 640 Z" fill="#0b151c"/>
  <g opacity="0.42" stroke="#7dd3fc" stroke-width="1">
    <path d="M90 520 H1130"/>
    <path d="M140 460 H1080"/>
    <path d="M210 405 H1010"/>
    <path d="M300 354 H920"/>
    <path d="M640 330 V580"/>
    <path d="M440 356 L270 580"/>
    <path d="M840 356 L1010 580"/>
  </g>
  <g transform="translate(720 90) rotate(-14)" filter="url(#shadow)">
    <rect x="0" y="0" width="190" height="390" rx="28" fill="url(#phoneBack)" stroke="#d8fff6" stroke-width="5"/>
    <rect x="20" y="22" width="86" height="128" rx="17" fill="#eaf8f4" stroke="#7b9991" stroke-width="4"/>
    <circle cx="45" cy="58" r="24" fill="#080b0e" stroke="#768791" stroke-width="5"/>
    <circle cx="45" cy="58" r="12" fill="#122331"/>
    <circle cx="81" cy="58" r="17" fill="#090c10" stroke="#75858f" stroke-width="4"/>
    <circle cx="45" cy="112" r="18" fill="#090c10" stroke="#75858f" stroke-width="4"/>
    <circle cx="82" cy="112" r="10" fill="#f7d778" stroke="#88713a" stroke-width="3"/>
    <text x="46" y="151" fill="#557069" font-family="Segoe UI, Arial" font-size="18" font-weight="700">200MP</text>
    <text x="62" y="318" fill="#5a756f" font-family="Segoe UI, Arial" font-size="28" font-weight="800">Redmi</text>
    <text x="118" y="340" fill="#6f8983" font-family="Segoe UI, Arial" font-size="16" font-weight="800">5G</text>
  </g>
  <g transform="translate(475 125) rotate(13)" filter="url(#shadow)">
    <rect x="0" y="0" width="185" height="382" rx="28" fill="#05070b" stroke="#9ba8b4" stroke-width="5"/>
    <rect x="16" y="20" width="153" height="342" rx="20" fill="url(#screen)"/>
    <circle cx="92" cy="35" r="7" fill="#05070b" stroke="#2a3844"/>
    <rect x="45" y="276" width="95" height="26" rx="13" fill="#163a51" stroke="#2b6989"/>
    <rect x="35" y="90" width="115" height="92" rx="16" fill="#123451" opacity="0.86"/>
    <rect x="35" y="195" width="115" height="54" rx="14" fill="#10243b" opacity="0.92"/>
  </g>
  <g fill="none" stroke-linecap="round">
    <path d="M332 210 C410 138 520 105 650 108" stroke="#7dd3fc" stroke-width="6"/>
    <path d="M351 280 C450 348 566 360 690 318" stroke="#2dd46f" stroke-width="5"/>
    <path d="M900 430 C780 505 615 520 455 460" stroke="#f5d778" stroke-width="5"/>
  </g>
  <g transform="translate(90 104)">
    <text x="0" y="0" fill="#f5fbff" font-family="Segoe UI, Arial" font-size="64" font-weight="800">Phone Digital Twin</text>
    <text x="0" y="52" fill="#b6c8d7" font-family="Segoe UI, Arial" font-size="25">Android sensors driving a local 3D phone model on your PC</text>
    <g transform="translate(0 92)" font-family="Segoe UI, Arial" font-size="20" font-weight="700">
      <rect x="0" y="0" width="188" height="42" rx="10" fill="#e8f3f1"/>
      <text x="18" y="28" fill="#071018">USB + ADB</text>
      <rect x="206" y="0" width="180" height="42" rx="10" fill="#14384d" stroke="#326a89"/>
      <text x="224" y="28" fill="#c9f1ff">Native APK</text>
      <rect x="404" y="0" width="196" height="42" rx="10" fill="#1f382c" stroke="#4d8d70"/>
      <text x="422" y="28" fill="#d9ffe8">Sensor Fusion</text>
    </g>
  </g>
</svg>
